<svg width="20" height="21" viewBox="0 0 20 21" fill="none" xmlns="http://www.w3.org/2000/svg">
<g id="jam:linkedin-square">
<g id="Group">
<path id="Vector" d="M14.1668 11.171V14.2518H12.3809V11.3768C12.3809 10.6551 12.1226 10.1626 11.4759 10.1626C10.9826 10.1626 10.6884 10.4943 10.5593 10.816C10.5126 10.931 10.5001 11.091 10.5001 11.251V14.2518H8.71344C8.71344 14.2518 8.7376 9.38345 8.71344 8.87929H10.5001V9.64012L10.4884 9.65762H10.5001V9.64095C10.7376 9.27429 11.1609 8.75262 12.1101 8.75262C13.2851 8.75262 14.1668 9.52095 14.1668 11.171ZM6.84427 6.28845C6.23343 6.28845 5.83344 6.69012 5.83344 7.21679C5.83344 7.73345 6.22177 8.14595 6.82094 8.14595H6.8326C7.45594 8.14595 7.84344 7.73262 7.84344 7.21679C7.83177 6.69012 7.45593 6.28845 6.84427 6.28845ZM5.93927 14.2518H7.72593V8.87929H5.93927V14.2518Z" fill="#BBB4B4"/>
<path id="Vector_2" d="M5.00008 3.56266C4.55805 3.56266 4.13413 3.73826 3.82157 4.05082C3.50901 4.36338 3.33341 4.7873 3.33341 5.22933V15.2293C3.33341 15.6714 3.50901 16.0953 3.82157 16.4078C4.13413 16.7204 4.55805 16.896 5.00008 16.896H15.0001C15.4421 16.896 15.866 16.7204 16.1786 16.4078C16.4912 16.0953 16.6667 15.6714 16.6667 15.2293V5.22933C16.6667 4.7873 16.4912 4.36338 16.1786 4.05082C15.866 3.73826 15.4421 3.56266 15.0001 3.56266H5.00008ZM5.00008 1.896H15.0001C15.8841 1.896 16.732 2.24719 17.3571 2.87231C17.9822 3.49743 18.3334 4.34527 18.3334 5.22933V15.2293C18.3334 16.1134 17.9822 16.9612 17.3571 17.5864C16.732 18.2115 15.8841 18.5627 15.0001 18.5627H5.00008C4.11603 18.5627 3.26818 18.2115 2.64306 17.5864C2.01794 16.9612 1.66675 16.1134 1.66675 15.2293V5.22933C1.66675 4.34527 2.01794 3.49743 2.64306 2.87231C3.26818 2.24719 4.11603 1.896 5.00008 1.896V1.896Z" fill="#BBB4B4"/>
</g>
</g>
</svg>
