<svg width="20" height="21" viewBox="0 0 20 21" fill="none" xmlns="http://www.w3.org/2000/svg">
<g id="line-md:instagram">
<g id="Group">
<path id="Vector" d="M10 2.729H6.66667C4.36548 2.729 2.5 4.59449 2.5 6.89567V13.5623C2.5 15.8635 4.36548 17.729 6.66667 17.729H13.3333C15.6345 17.729 17.5 15.8635 17.5 13.5623V6.89567C17.5 4.59449 15.6345 2.729 13.3333 2.729H10Z" stroke="#BBB4B4" stroke-width="2" stroke-linecap="round" stroke-linejoin="round"/>
<path id="Vector_2" d="M10.0001 6.896C11.841 6.896 13.3334 8.38838 13.3334 10.2293C13.3334 12.0703 11.841 13.5627 10.0001 13.5627C8.15913 13.5627 6.66675 12.0702 6.66675 10.2293C6.66675 8.38838 8.15913 6.896 10.0001 6.896Z" stroke="#BBB4B4" stroke-width="2" stroke-linecap="round" stroke-linejoin="round"/>
</g>
<path id="Vector_3" d="M14.1667 7.31201C14.8571 7.31201 15.4167 6.75237 15.4167 6.06201C15.4167 5.37166 14.8571 4.81201 14.1667 4.81201C13.4764 4.81201 12.9167 5.37166 12.9167 6.06201C12.9167 6.75237 13.4764 7.31201 14.1667 7.31201Z" fill="#BBB4B4"/>
</g>
</svg>
