<svg width="20" height="21" viewBox="0 0 20 21" fill="none" xmlns="http://www.w3.org/2000/svg">
<g id="ph:facebook-logo-bold">
<path id="Vector" d="M18.4375 10.229C18.4375 8.56023 17.9427 6.92892 17.0155 5.54138C16.0884 4.15384 14.7706 3.07239 13.2289 2.43377C11.6871 1.79516 9.99064 1.62807 8.35393 1.95363C6.71721 2.27919 5.2138 3.08279 4.03379 4.26279C2.85379 5.4428 2.05019 6.94622 1.72463 8.58293C1.39907 10.2196 1.56616 11.9161 2.20477 13.4579C2.84338 14.9997 3.92484 16.3174 5.31238 17.2445C6.69992 18.1717 8.33122 18.6665 10 18.6665C12.2371 18.6644 14.382 17.7748 15.9639 16.1929C17.5458 14.611 18.4354 12.4661 18.4375 10.229ZM10.9375 16.7212V12.4165H12.5C12.7486 12.4165 12.9871 12.3177 13.1629 12.1419C13.3387 11.9661 13.4375 11.7276 13.4375 11.479C13.4375 11.2304 13.3387 10.9919 13.1629 10.8161C12.9871 10.6403 12.7486 10.5415 12.5 10.5415H10.9375V8.97901C10.9375 8.73037 11.0363 8.49191 11.2121 8.31609C11.3879 8.14028 11.6264 8.04151 11.875 8.04151H13.125C13.3736 8.04151 13.6121 7.94274 13.7879 7.76692C13.9637 7.5911 14.0625 7.35265 14.0625 7.10401C14.0625 6.85537 13.9637 6.61691 13.7879 6.44109C13.6121 6.26528 13.3736 6.16651 13.125 6.16651H11.875C11.1291 6.16651 10.4137 6.46282 9.88627 6.99027C9.35882 7.51772 9.0625 8.23309 9.0625 8.97901V10.5415H7.5C7.25136 10.5415 7.01291 10.6403 6.83709 10.8161C6.66128 10.9919 6.5625 11.2304 6.5625 11.479C6.5625 11.7276 6.66128 11.9661 6.83709 12.1419C7.01291 12.3177 7.25136 12.4165 7.5 12.4165H9.0625V16.7212C7.42039 16.4842 5.929 15.634 4.88848 14.3417C3.84795 13.0494 3.33554 11.4109 3.45435 9.75605C3.57317 8.10118 4.31439 6.55273 5.52886 5.42233C6.74332 4.29194 8.34087 3.6635 10 3.6635C11.6591 3.6635 13.2567 4.29194 14.4712 5.42233C15.6856 6.55273 16.4268 8.10118 16.5457 9.75605C16.6645 11.4109 16.1521 13.0494 15.1115 14.3417C14.071 15.634 12.5796 16.4842 10.9375 16.7212Z" fill="#BBB4B4"/>
</g>
</svg>
