<svg width="16" height="17" viewBox="0 0 16 17" fill="none" xmlns="http://www.w3.org/2000/svg">
<g id="teenyicons:twitter-outline" clip-path="url(#clip0_1_671)">
<path id="Vector" d="M15.4432 1.829L15.9766 1.7938C15.9697 1.68909 15.932 1.58876 15.8683 1.50535C15.8046 1.42195 15.7178 1.35918 15.6186 1.32491C15.5194 1.29063 15.4123 1.28638 15.3108 1.31267C15.2092 1.33897 15.1176 1.39464 15.0475 1.47273L15.4432 1.829ZM14.912 4.98527C14.912 4.84382 14.8559 4.70816 14.7558 4.60814C14.6558 4.50812 14.5202 4.45193 14.3787 4.45193C14.2373 4.45193 14.1016 4.50812 14.0016 4.60814C13.9016 4.70816 13.8454 4.84382 13.8454 4.98527H14.912ZM7.98938 5.07273H7.45604H7.98938ZM7.98938 6.09567H8.52271H7.98938ZM0.533377 13.5623V13.029C0.418858 13.0289 0.307336 13.0656 0.215308 13.1337C0.12328 13.2019 0.0556333 13.2979 0.0223756 13.4074C-0.010882 13.517 -0.00798427 13.6344 0.0306401 13.7422C0.0692645 13.85 0.141564 13.9425 0.236843 14.0061L0.533377 13.5623ZM1.59791 1.829L2.09818 1.64233C2.06182 1.54495 1.99781 1.46032 1.914 1.39884C1.83019 1.33736 1.73024 1.3017 1.62644 1.29626C1.52264 1.29082 1.41951 1.31583 1.32973 1.36822C1.23995 1.42061 1.16744 1.49809 1.12111 1.59113L1.59791 1.829ZM5.85818 11.429L6.23578 11.8055C6.29984 11.7413 6.34645 11.6617 6.37119 11.5744C6.39592 11.4871 6.39798 11.3949 6.37715 11.3066C6.35633 11.2183 6.31331 11.1367 6.25217 11.0697C6.19104 11.0026 6.1138 10.9523 6.02778 10.9234L5.85818 11.429ZM13.5638 2.86687L13.1691 3.22527L13.3611 3.43753L13.6438 3.39487L13.5638 2.86687ZM14.912 1.8642C14.9664 2.69407 14.9152 3.19753 14.7808 3.57727C14.6507 3.94527 14.4224 4.2482 14.0096 4.64393L14.7478 5.41407C15.215 4.96607 15.5755 4.5266 15.7867 3.93353C15.9926 3.35113 16.0342 2.677 15.9755 1.7938L14.911 1.8642H14.912ZM14.912 5.7618V4.98633H13.8454V5.76287H14.912V5.7618ZM7.45604 5.07273V6.09567H8.52271V5.07273H7.45604ZM7.45604 6.09567V6.629H8.52271V6.09567H7.45604ZM11.2267 1.29567C10.731 1.29595 10.2402 1.39386 9.78227 1.58383C9.32438 1.7738 8.90839 2.05209 8.55805 2.40283C8.20772 2.75356 7.92989 3.16986 7.74044 3.62797C7.55099 4.08607 7.45363 4.577 7.45391 5.07273H8.52058C8.5203 4.71699 8.59011 4.36467 8.72602 4.03591C8.86193 3.70716 9.06128 3.40839 9.31268 3.1567C9.56408 2.905 9.8626 2.7053 10.1912 2.569C10.5198 2.4327 10.872 2.36247 11.2278 2.36233V1.29567H11.2267ZM13.8443 5.7618C13.8454 10.3655 10.1195 14.0957 5.52538 14.0957V15.1623C10.7094 15.1623 14.912 10.9533 14.912 5.7618H13.8454H13.8443ZM1.09871 2.01567C1.67898 3.56447 3.85498 6.629 7.98938 6.629V5.56233C4.45231 5.56233 2.58244 2.93833 2.09711 1.64233L1.09764 2.01567H1.09871ZM1.12111 1.59113C0.00430984 3.82687 -0.167423 5.99647 0.64431 7.84393C1.45391 9.68607 3.19578 11.1026 5.68964 11.9346L6.02778 10.9234C3.72911 10.1554 2.27524 8.90527 1.62031 7.41407C0.96751 5.9282 1.06244 4.09673 2.07578 2.06687L1.12111 1.59113ZM5.48058 11.0525C4.83844 11.6957 2.90778 13.029 0.533377 13.029V14.0957C3.27044 14.0957 5.45818 12.5853 6.23578 11.8055L5.48058 11.0525ZM13.9595 2.50953C13.6146 2.12708 13.1933 1.82139 12.7227 1.61227C12.252 1.40315 11.7427 1.29529 11.2278 1.29567V2.36233C11.9968 2.36233 12.6891 2.69407 13.1691 3.22527L13.9584 2.50953H13.9595ZM13.6438 3.39487C14.4934 3.25605 15.2694 2.82891 15.8411 2.18527L15.0475 1.47273C14.6408 1.93219 14.0889 2.23828 13.4838 2.33993L13.6438 3.39487ZM0.236843 14.0061C1.98724 15.173 3.82191 15.1623 5.52538 15.1623V14.0957C3.78671 14.0957 2.27418 14.0839 0.82991 13.1186L0.236843 14.0061Z" fill="#BBB4B4" stroke="#BBB4B4" stroke-width="0.5"/>
</g>
<defs>
<clipPath id="clip0_1_671">
<rect width="16" height="16" fill="white" transform="translate(0 0.229004)"/>
</clipPath>
</defs>
</svg>
